<svg width="48" height="48" viewBox="0 0 48 48" fill="none" xmlns="http://www.w3.org/2000/svg">
<path d="M16.1832 9.6001C12.1825 9.6001 8.92773 12.8569 8.92773 16.8599C8.92773 17.416 9.3783 17.8668 9.93395 17.8668C10.4897 17.8668 10.9402 17.416 10.9402 16.8599C10.9402 13.9672 13.2922 11.6138 16.1832 11.6138C16.739 11.6138 17.1895 11.163 17.1895 10.6069C17.1895 10.0508 16.739 9.6001 16.1832 9.6001Z" fill="#EB5D84"/>
<path d="M33.9053 28.2667C35.7243 25.4133 36.7783 22.028 36.7783 18.4C36.7783 8.25337 28.5298 0 18.3892 0C14.7633 0 11.3799 1.05469 8.52834 2.87466C6.25631 4.32403 4.32281 6.25866 2.87428 8.532C1.05534 11.3854 0 14.772 0 18.4C0 28.5454 8.24981 36.8 18.3892 36.8C22.015 36.8 25.3997 35.744 28.2514 33.924C30.5233 32.4746 32.4568 30.54 33.9053 28.2667ZM24.3523 30.0227C22.564 30.9454 20.5359 31.4667 18.3892 31.4667C11.1894 31.4667 5.33016 25.6041 5.33016 18.4C5.33016 16.252 5.85122 14.2227 6.77334 12.4334C8.02191 10.0094 10.0061 8.02538 12.4286 6.77738C14.2169 5.85469 16.2437 5.33334 18.3891 5.33334C25.5902 5.33334 31.4481 11.1947 31.4481 18.4C31.4481 20.5467 30.927 22.5747 30.0049 24.364C28.7577 26.788 26.7748 28.7734 24.3523 30.0227Z" fill="#EB5D84"/>
<path d="M46.8299 41.1707L36.2135 30.5747C34.7024 32.7827 32.7663 34.7186 30.5596 36.2321L41.1759 46.828C41.9568 47.6094 42.9802 48 44.0023 48C45.0257 48 46.0491 47.6094 46.83 46.828C48.3904 45.2653 48.3904 42.7333 46.8299 41.1707Z" fill="#EB5D84"/>
</svg>
