<svg width="405" height="562" viewBox="0 0 405 562" fill="none" xmlns="http://www.w3.org/2000/svg">
<g filter="url(#filter0_d_349_627)">
<path d="M387.981 210.525C381.235 204.077 382.128 199.911 377.664 196.042C373.101 192.173 370.521 192.272 357.625 198.82C348.598 203.383 344.63 209.831 344.63 209.831C344.63 209.831 345.919 194.554 354.451 189.495C362.188 184.832 373.101 172.829 369.033 164.992C366.553 160.329 355.641 171.638 350.483 175.408C336.793 185.427 328.757 203.78 325.285 217.271C321.813 230.763 331.932 268.36 324.393 295.045L368.339 315.778C373.894 287.208 383.318 281.355 383.814 267.864C384.112 260.027 379.747 256.952 382.723 256.654C387.485 256.158 397.703 250.504 398.794 243.956C399.687 238.004 397.008 228.084 396.413 226.596C394.528 222.33 394.925 217.172 388.179 210.724L387.981 210.525Z" fill="white"/>
<path d="M396.211 222.331C395.219 218.859 394.029 214.494 388.87 209.534C385.398 206.161 384.009 203.483 382.819 201.102C381.728 198.92 380.736 196.936 378.454 194.952C376.371 193.166 374.486 191.975 371.807 191.975C368.831 191.975 365.062 193.364 356.828 197.531C352.166 199.912 348.793 202.689 346.61 204.971C347.701 200.308 349.983 193.364 354.943 190.388C362.383 185.924 374.784 173.226 370.022 164.1C369.427 162.909 368.335 162.314 366.947 162.314C363.475 162.314 358.316 166.679 353.753 170.548C352.166 171.937 350.678 173.226 349.487 174.02C332.524 186.321 325.58 209.733 323.794 216.677C322.306 222.331 323.199 231.954 324.191 243.064C325.58 258.937 327.365 278.678 322.901 294.352C322.703 294.947 323 295.641 323.595 295.939L367.542 316.672C367.542 316.672 367.939 316.771 368.137 316.771C368.335 316.771 368.534 316.771 368.732 316.672C369.129 316.474 369.327 316.176 369.427 315.779C372.403 300.502 376.371 291.872 379.644 284.927C382.422 278.876 384.704 274.114 384.902 267.666C385.1 263.401 383.91 260.425 383.216 258.639C383.116 258.341 382.918 257.945 382.819 257.647C388.176 256.853 398.592 251.1 399.782 243.858C400.774 237.608 398.096 227.49 397.302 225.803C396.806 224.712 396.509 223.522 396.112 222.232L396.211 222.331ZM397.302 243.56C396.409 249.215 386.886 254.572 382.422 255.167C382.124 255.167 381.033 255.365 380.537 256.258C379.942 257.25 380.339 258.341 380.934 259.73C381.628 261.417 382.62 263.996 382.422 267.666C382.224 273.618 380.14 277.983 377.363 283.935C374.188 290.78 370.22 299.212 367.244 313.696L325.877 294.153C330.044 278.281 328.357 258.738 326.968 243.064C325.976 232.152 325.183 222.827 326.572 217.47C328.258 210.824 335.004 188.107 351.174 176.302C352.364 175.409 353.951 174.119 355.638 172.73C359.209 169.655 364.665 165.092 367.145 165.092C367.542 165.092 367.641 165.191 367.839 165.489C371.311 172.135 361.887 183.444 353.753 188.305C344.825 193.662 343.436 209.038 343.337 209.733C343.337 210.328 343.634 210.923 344.229 211.121C344.825 211.32 345.42 211.121 345.817 210.526C345.817 210.526 349.686 204.376 358.217 200.011C365.855 196.142 369.427 194.753 371.907 194.753C373.494 194.753 374.784 195.348 376.768 197.035C378.652 198.622 379.446 200.308 380.438 202.392C381.728 204.971 383.216 207.848 386.985 211.518C391.648 215.982 392.739 219.752 393.632 223.026C394.029 224.414 394.425 225.704 394.921 226.994C395.517 228.382 398.096 238.005 397.203 243.66L397.302 243.56Z" fill="black"/>
<path d="M384.212 206.458C383.517 206.657 383.12 207.45 383.418 208.145C383.517 208.641 386.791 219.255 370.125 227.688C364.768 230.366 360.8 230.862 359.114 228.977C357.03 226.795 357.824 221.041 360.8 216.577C361.693 215.287 364.867 211.022 368.538 212.113C369.232 212.311 370.026 211.914 370.224 211.22C370.423 210.526 370.026 209.732 369.331 209.534C365.562 208.343 361.594 210.426 358.618 215.089C355.443 219.95 353.856 227.092 357.229 230.664C358.221 231.755 359.808 232.648 362.288 232.648C364.57 232.648 367.447 231.953 371.415 229.969C390.164 220.446 386.196 207.748 385.997 207.252C385.799 206.558 385.005 206.161 384.311 206.458H384.212Z" fill="black"/>
<path d="M394.526 221.438C393.831 221.637 393.434 222.43 393.633 223.125C393.732 223.621 397.006 234.235 380.34 242.667C373.792 246.04 369.13 246.735 366.848 244.949C363.773 242.469 365.063 235.227 365.856 232.648C366.055 231.953 365.658 231.259 364.963 230.961C364.269 230.763 363.475 231.16 363.277 231.854C363.178 232.251 360.103 242.766 365.063 246.933C366.352 248.024 368.039 248.52 370.023 248.52C372.999 248.52 376.768 247.33 381.431 244.949C400.18 235.426 396.212 222.728 396.014 222.232C395.815 221.537 395.022 221.141 394.327 221.438H394.526Z" fill="black"/>
<path d="M268.634 369.349C268.634 369.349 252.167 299.114 200.78 249.513L157.727 425.497C157.727 425.497 197.705 448.314 245.718 462.599C281.133 473.114 327.758 483.232 358.411 409.724C369.82 382.543 387.279 323.319 387.279 323.319C376.863 322.923 316.152 294.253 316.152 294.253L268.634 369.349Z" fill="#FFEF72"/>
<path d="M387.382 322.327C377.264 321.93 317.247 293.658 316.651 293.36C316.155 293.162 315.659 293.36 315.362 293.757L269.035 366.869C265.662 354.468 247.309 293.063 201.478 248.819C201.181 248.62 200.883 248.521 200.486 248.62C200.089 248.719 199.891 249.017 199.792 249.315L156.738 425.298C156.738 425.298 156.738 426.191 157.234 426.39C157.631 426.588 197.907 449.504 245.425 463.491C258.618 467.36 272.407 470.733 286.097 470.733C313.179 470.733 339.468 457.638 359.407 410.021C370.617 383.038 388.176 324.113 388.374 323.517C388.374 323.22 388.374 322.922 388.275 322.625C388.076 322.327 387.779 322.228 387.481 322.228L387.382 322.327ZM357.522 409.426C325.778 485.315 275.879 470.534 246.02 461.705C201.974 448.71 164.278 428.076 158.921 425.1L201.379 251.497C250.881 300.205 267.546 368.952 267.646 369.646C267.646 370.043 268.043 370.341 268.439 370.44C268.836 370.44 269.233 370.341 269.431 370.043L316.552 295.741C323.794 299.114 373.494 322.327 386.092 324.41C383.612 332.743 367.939 384.824 357.622 409.624L357.522 409.426Z" fill="#000100"/>
<path d="M387.38 322.029C379.344 321.731 337.68 302.982 316.748 293.062C316.153 292.764 315.359 293.062 315.062 293.558L269.131 366.074C265.263 352.087 246.712 292.07 201.774 248.62L199.889 250.504C250.283 299.212 267.147 368.951 267.346 369.646C267.445 370.142 267.941 370.538 268.437 370.638C268.933 370.638 269.528 370.439 269.727 370.042L316.649 295.939C324.684 299.708 372.5 321.93 385.594 324.41C382.817 333.735 367.44 384.724 357.222 409.227C325.676 484.819 275.877 470.137 246.117 461.308C198.797 447.321 158.819 424.603 158.422 424.405L157.133 426.687C157.133 426.687 197.805 449.801 245.422 463.887C258.715 467.855 272.504 471.129 286.194 471.129C313.375 471.129 339.763 458.034 359.703 410.219C371.012 383.236 388.471 324.31 388.669 323.715C388.769 323.318 388.669 322.922 388.471 322.624C388.273 322.326 387.876 322.128 387.479 322.029H387.38Z" fill="black"/>
<path d="M318.137 276.992L294.031 332.247C320.915 370.738 372.599 368.158 372.599 368.158L375.873 350.798L380.337 368.357C386.19 368.853 391.249 367.166 391.249 367.166L380.932 299.61C345.517 292.269 318.137 277.091 318.137 277.091V276.992Z" fill="white"/>
<path d="M381.132 298.519C346.213 291.277 318.933 276.198 318.635 276.099C318.338 276 318.139 275.901 317.842 276.099C317.544 276.099 317.346 276.397 317.247 276.595L293.141 331.85C293.141 331.85 293.141 332.545 293.141 332.842C320.024 371.333 372.105 369.15 372.601 369.15C373.097 369.15 373.395 368.754 373.494 368.357L375.974 355.46L379.347 368.654C379.347 368.654 379.843 369.349 380.24 369.448C381.033 369.448 381.827 369.547 382.62 369.547C387.481 369.547 391.35 368.257 391.549 368.257C392.045 368.059 392.342 367.662 392.243 367.166L381.926 299.61C381.926 299.61 381.529 298.916 381.132 298.816V298.519ZM381.132 367.265L376.867 350.401C376.867 350.401 376.371 349.608 375.875 349.608C375.875 349.608 374.982 350.004 374.883 350.401L371.708 366.968C371.708 366.968 371.113 366.968 370.716 366.968C361.491 366.968 318.635 365.083 295.025 331.95L318.437 278.282C323.596 280.96 348.694 293.757 379.843 300.304L389.961 366.373C388.473 366.769 385.001 367.563 380.934 367.265H381.132Z" fill="#000100"/>
<path d="M378.748 319.648C376.664 319.449 374.78 320.937 374.581 323.12C374.383 325.203 375.97 327.088 378.053 327.187C380.137 327.386 382.021 325.898 382.22 323.814C382.418 321.731 380.831 319.846 378.748 319.747V319.648Z" fill="#FFEF72"/>
<path d="M378.947 318.358C376.07 318.061 373.59 320.144 373.392 323.021C373.094 325.798 375.177 328.278 378.054 328.576C378.252 328.576 378.352 328.576 378.55 328.576C381.229 328.576 383.411 326.592 383.709 323.913C383.808 322.525 383.411 321.235 382.518 320.144C381.625 319.053 380.435 318.457 379.046 318.358H378.947ZM378.451 325.897H378.252C376.864 325.798 375.872 324.608 375.971 323.219C376.07 321.929 377.161 320.937 378.649 320.937C379.344 320.937 379.939 321.334 380.336 321.83C380.733 322.326 380.931 323.021 380.931 323.616C380.832 324.905 379.741 325.897 378.451 325.897Z" fill="black"/>
<path d="M216.157 199.217C196.713 196.44 170.524 195.844 151.378 198.92C115.169 204.772 71.1238 224.514 51.3827 254.869C-3.07898 338.793 3.96433 462.001 0.988281 555.548H344.226C341.647 448.312 341.448 371.232 307.323 284.63C293.732 250.207 264.369 206.26 216.157 199.316V199.217Z" fill="#FFEF72"/>
<path d="M308.319 284.233C299.192 261.02 272.011 206.261 216.359 198.226C195.229 195.15 169.04 195.051 151.282 197.928C115.669 203.682 70.7308 223.324 50.5928 254.374C3.86886 326.294 2.28164 425.496 0.892815 512.991C0.694411 527.872 0.396806 541.958 0 555.549C0 555.846 0 556.045 0.297605 556.243C0.496008 556.442 0.694411 556.541 0.992016 556.541H344.23C344.23 556.541 344.726 556.442 344.924 556.243C345.122 556.045 345.222 555.747 345.222 555.549L344.924 540.768C342.543 439.88 340.857 367.066 308.319 284.233ZM1.98403 554.557C2.38084 541.264 2.57924 527.475 2.87685 512.991C4.26567 425.793 5.8529 326.89 52.1801 255.465C72.0204 225.01 116.364 205.566 151.481 199.912C169.139 197.035 195.03 197.134 215.962 200.21C270.523 208.047 297.406 262.111 306.434 284.928C338.873 367.364 340.559 440.078 342.94 540.768L343.238 554.557H1.98403Z" fill="#000100"/>
<path d="M212.889 339.984C212.393 339.984 211.996 340.579 212.095 341.075C212.195 342.067 227.174 438.69 220.726 555.45C220.726 556.045 221.123 556.442 221.619 556.541C222.115 556.541 222.611 556.144 222.611 555.648C229.059 438.69 214.079 341.77 213.98 340.778C213.98 340.282 213.286 339.885 212.889 339.984Z" fill="#000100"/>
<path d="M151.379 198.92C151.379 198.92 201.674 319.053 213.082 340.877C213.082 340.877 222.407 222.431 216.257 199.217C216.257 199.217 175.187 191.083 151.478 198.92H151.379Z" fill="white"/>
<path d="M216.354 198.226C214.668 197.928 174.69 190.19 151.08 198.027C150.782 198.027 150.584 198.325 150.485 198.523C150.385 198.722 150.385 199.019 150.485 199.317C150.981 200.507 200.978 319.748 212.188 341.374C212.386 341.671 212.684 341.87 213.081 341.87C213.081 341.87 213.18 341.87 213.279 341.87C213.676 341.87 214.073 341.374 214.073 340.977C214.47 336.116 223.398 222.034 217.247 198.92C217.247 198.523 216.85 198.325 216.454 198.226H216.354ZM212.287 337.306C199.292 310.621 157.329 210.725 152.667 199.615C174.392 192.968 210.204 199.218 215.362 200.111C220.521 221.836 213.775 317.565 212.287 337.306Z" fill="#000100"/>
<path d="M193.048 44.8603C183.525 46.9436 136.206 55.4749 134.42 101.405C134.222 107.556 149.3 137.118 150.391 144.657C154.558 173.326 151.284 199.02 151.284 199.02C188.088 217.372 216.063 199.317 216.063 199.317C214.972 194.754 217.055 173.922 217.055 173.922C237.49 180.469 252.966 164.398 257.728 151.502C266.854 126.503 255.347 90.2947 252.867 74.3232C247.807 42.4795 215.17 39.9995 193.048 44.9595V44.8603Z" fill="white"/>
<path d="M253.961 74.125C252.275 63.312 247.216 54.979 239.081 49.523C228.07 42.0828 210.809 39.9996 192.853 43.9677L191.663 44.2653C154.165 52.3006 134.523 71.5457 133.431 101.405C133.332 104.877 137.499 114.599 141.864 124.916C145.336 133.051 149.006 141.483 149.502 144.856C153.569 173.029 150.395 198.623 150.395 198.921C150.395 199.317 150.593 199.714 150.891 199.913C163.291 206.162 174.898 208.246 184.619 208.246C203.865 208.246 216.463 200.309 216.662 200.21C217.058 200.012 217.158 199.516 217.058 199.119C216.265 195.845 217.257 182.751 217.951 175.311C237.99 180.965 253.763 165.192 258.624 151.899C266.064 131.563 260.013 104.084 256.144 85.8308C255.152 81.2675 254.358 77.3986 253.763 74.2242L253.961 74.125ZM256.937 151.105C252.275 163.902 236.899 179.08 217.554 172.93C217.257 172.831 216.959 172.93 216.761 173.029C216.463 173.227 216.364 173.426 216.364 173.723C216.364 174.517 214.479 192.969 215.273 198.722C211.206 201.103 185.314 214.396 152.577 198.325C153.073 193.961 155.355 170.251 151.585 144.459C151.089 140.788 147.518 132.654 143.848 124.023C139.88 114.897 135.515 104.481 135.614 101.405C136.705 72.5377 155.752 53.987 192.258 46.0509L193.448 45.7533C210.908 41.8844 227.574 43.8685 238.089 51.011C245.728 56.1695 250.39 64.0064 252.077 74.3234C252.573 77.4978 253.465 81.4659 254.457 86.0292C258.326 103.985 264.278 131.265 257.037 151.006L256.937 151.105Z" fill="#000100"/>
<path d="M217.651 1.3108C205.35 3.98924 196.124 10.1397 194.041 11.6278C181.541 10.3381 170.431 10.8342 161.006 12.9174C123.211 21.3495 122.318 54.0861 122.318 58.4509C86.9028 108.548 152.773 163.704 153.368 164.2C153.666 164.497 154.162 164.597 154.558 164.497C154.558 164.497 154.558 164.497 154.658 164.497C155.054 164.398 155.451 164.001 155.55 163.605C157.038 157.95 159.122 144.756 157.435 139.995C157.138 139.201 156.344 138.11 154.757 135.828C150.193 129.479 141.761 117.575 143.745 107.953C144.539 104.084 146.821 101.108 150.888 98.7268C156.939 95.0563 163.387 95.0563 168.744 99.0244C169.141 99.322 169.637 99.322 170.133 99.1236C170.629 98.9252 170.827 98.4292 170.827 97.9332C171.026 86.8226 169.835 77.2992 169.141 73.0336C184.021 78.5889 202.969 78.8865 225.388 73.9264C254.355 67.4783 279.156 54.1853 279.453 54.0861C280.048 53.7885 280.247 53.1932 280.048 52.598C265.664 1.906 238.086 -3.25248 217.651 1.3108Z" fill="black"/>
<path d="M207.924 86.2284C203.758 82.8555 198.798 81.4667 194.036 82.3595H193.54C183.917 84.6411 178.064 95.2557 180.247 106.763C181.338 112.318 184.215 117.278 188.282 120.552C192.449 123.925 197.409 125.314 202.17 124.421H202.666C212.388 122.139 218.142 111.525 215.959 100.017C214.868 94.4621 211.991 89.502 207.924 86.2284ZM202.071 121.743H201.674C197.607 122.635 193.441 121.445 189.969 118.568C186.397 115.592 183.818 111.227 182.925 106.267C181.041 96.3469 186.001 86.8236 194.135 85.0379H194.532C198.599 84.1451 202.766 85.3356 206.238 88.2124C209.809 91.1885 212.388 95.4541 213.281 100.513C215.166 110.434 210.206 119.957 202.071 121.743Z" fill="black"/>
<path d="M243.141 73.0343H242.645C232.923 75.316 227.169 85.9305 229.352 97.4379C230.443 102.993 233.32 107.953 237.387 111.227C241.553 114.6 246.514 115.989 251.275 115.096H251.771C261.394 112.814 267.247 102.2 265.064 90.6922C262.783 79.0856 252.962 71.1495 243.141 73.0343ZM251.176 112.417H250.779C246.712 113.31 242.545 112.12 239.073 109.243C235.502 106.267 232.923 101.902 232.03 96.9419C230.145 87.0218 235.205 77.4984 243.24 75.7128H243.637C252.069 74.0263 260.501 80.9704 262.485 91.1882C264.37 101.108 259.41 110.632 251.275 112.417H251.176Z" fill="black"/>
<path d="M212.392 94.3627C211.896 94.9579 211.995 95.7516 212.59 96.2476C213.185 96.7436 213.979 96.6444 214.475 96.0492C221.32 87.617 229.355 92.8747 229.653 93.0731C229.95 93.2715 230.347 93.3707 230.744 93.2715C231.042 93.2715 231.339 93.0731 231.538 92.7755C231.935 92.1803 231.835 91.3867 231.24 90.9899C231.24 90.9899 220.824 84.0458 212.491 94.4619L212.392 94.3627Z" fill="black"/>
<path d="M243.044 137.812C243.044 137.812 236.894 146.343 216.161 142.772C215.466 142.673 214.772 143.169 214.673 143.863C214.574 144.557 215.07 145.252 215.764 145.351C223.7 146.74 229.652 146.343 234.116 145.351C242.251 143.565 245.128 139.498 245.326 139.2C245.723 138.605 245.624 137.812 245.029 137.415C244.433 137.018 243.64 137.117 243.144 137.712L243.044 137.812Z" fill="black"/>
<path d="M203.366 92.4777C203.366 92.4777 193.247 91.5849 188.287 98.4298C187.89 99.025 187.989 99.8186 188.585 100.215C188.882 100.414 189.279 100.513 189.676 100.414C189.973 100.414 190.271 100.215 190.469 99.9178C194.537 94.2633 203.068 95.0569 203.167 95.0569C203.862 95.0569 204.556 94.5609 204.655 93.8665C204.655 93.1721 204.159 92.4777 203.465 92.4777H203.366Z" fill="black"/>
<path d="M234.607 85.5337C234.012 85.9305 233.814 86.7242 234.111 87.3194C234.508 87.9146 235.302 88.113 235.897 87.7162C235.897 87.7162 243.337 83.3513 249.488 86.7242C249.785 86.9226 250.083 86.9226 250.38 86.8234C250.777 86.8234 251.075 86.5257 251.273 86.2281C251.67 85.6329 251.372 84.8393 250.777 84.4425C243.238 80.3753 234.905 85.2361 234.508 85.4345L234.607 85.5337Z" fill="black"/>
<path d="M241.748 93.669C240.161 94.0658 239.268 95.9507 239.764 98.0339C240.26 100.117 241.847 101.506 243.435 101.109C245.022 100.712 245.915 98.8275 245.419 96.7443C244.923 94.6611 243.335 93.2722 241.748 93.669Z" fill="black"/>
<path d="M241.449 92.3788C239.168 92.8748 237.779 95.5532 238.374 98.3308C238.969 101.108 241.35 102.894 243.731 102.398C246.013 101.902 247.402 99.2237 246.707 96.446C246.112 93.6684 243.731 91.8827 241.449 92.3788ZM243.136 99.8189C242.342 100.017 241.35 99.1245 241.053 97.7356C240.755 96.3468 241.35 95.1564 242.045 94.958C242.838 94.7596 243.83 95.6524 244.128 97.0412C244.425 98.43 243.83 99.6205 243.136 99.8189Z" fill="black"/>
<path d="M196.607 103.785C195.02 104.182 194.127 106.067 194.623 108.15C195.119 110.234 196.707 111.622 198.294 111.226C199.881 110.928 200.774 108.944 200.278 106.861C199.782 104.778 198.195 103.389 196.607 103.785Z" fill="black"/>
<path d="M196.321 102.495C194.039 102.991 192.65 105.67 193.245 108.447C193.84 111.225 196.221 113.011 198.602 112.515C200.884 112.019 202.273 109.34 201.677 106.562C201.082 103.785 198.701 101.999 196.321 102.495ZM198.007 109.935C197.313 110.134 196.221 109.241 195.924 107.852C195.626 106.463 196.221 105.273 196.916 105.074C197.61 104.876 198.701 105.769 198.999 107.158C199.297 108.547 198.701 109.737 198.007 109.935Z" fill="black"/>
<path d="M229.754 112.814C226.977 112.814 224.397 114.798 221.917 118.667C221.521 119.262 221.719 120.055 222.314 120.452C222.612 120.651 223.009 120.75 223.306 120.651C223.604 120.651 223.901 120.353 224.1 120.055C226.084 116.98 227.969 115.393 229.655 115.393C231.54 115.393 232.83 117.476 232.83 117.476C233.226 118.071 234.02 118.27 234.615 117.972C235.21 117.575 235.409 116.782 235.111 116.187C235.111 116.087 233.028 112.814 229.655 112.814H229.754Z" fill="black"/>
<path d="M174.791 146.641C174.593 145.947 173.898 145.451 173.204 145.649C172.51 145.847 172.014 146.542 172.212 147.236C176.974 168.366 215.96 175.013 217.547 175.31C217.746 175.31 218.043 173.029 217.25 172.93C216.853 172.93 179.156 166.085 174.791 146.74V146.641Z" fill="black"/>
<path d="M210.407 494.441C206.538 494.441 203.363 497.516 203.363 501.385C203.363 505.254 206.538 508.329 210.407 508.329C214.275 508.329 217.45 505.254 217.45 501.385C217.45 497.516 214.275 494.441 210.407 494.441Z" fill="#6243CC"/>
<path d="M210.402 496.226C207.525 496.226 205.145 498.606 205.145 501.483C205.145 504.36 207.525 506.642 210.402 506.642C213.279 506.642 215.66 504.261 215.66 501.483C215.66 498.706 213.279 496.226 210.402 496.226Z" fill="black"/>
<path d="M365.064 410.418C357.922 408.83 279.354 414.386 279.354 414.386C279.354 414.386 273.799 406.053 283.421 395.041C293.044 384.03 289.671 370.042 283.719 375.499C277.668 380.955 260.506 395.934 254.752 404.465C248.701 413.493 244.534 419.842 235.209 429.663C227.868 437.301 156.642 429.464 156.642 429.464L148.309 498.31C149.697 496.624 265.664 479.66 285.504 482.835C297.409 484.72 305.543 479.164 318.241 472.915C330.939 466.665 327.07 458.927 327.07 458.927C336.494 454.364 335.304 444.047 335.304 444.047C347.307 430.159 338.974 427.976 338.974 427.976C348.2 427.083 361.195 423.81 365.957 421.032C373.298 416.766 369.528 411.41 365.163 410.517L365.064 410.418Z" fill="white"/>
<path d="M365.26 409.425C358.217 407.937 287.784 412.699 279.847 413.294C278.955 411.409 276.276 404.565 284.113 395.537C291.355 387.204 291.553 377.086 288.478 374.11C286.99 372.622 284.907 372.82 282.923 374.606C282.129 375.3 281.236 376.193 280.145 377.185C272.705 383.831 258.916 396.232 253.857 403.87L252.865 405.358C247.21 413.691 243.143 419.742 234.413 428.968C228.659 434.92 176.38 430.655 156.639 428.472C156.143 428.472 155.647 428.77 155.548 429.365L147.215 498.211C147.215 498.211 147.413 499.104 147.81 499.203C147.909 499.203 148.108 499.203 148.207 499.203C148.405 499.203 148.604 499.203 148.802 499.004C153.465 497.02 266.158 480.553 285.304 483.628C295.72 485.315 303.457 481.347 313.278 476.287C314.965 475.394 316.75 474.502 318.635 473.609C323.695 471.129 326.968 468.054 328.159 464.482C328.952 462.201 328.655 460.316 328.357 459.225C336.392 454.86 336.492 446.229 336.293 444.146C341.452 438.095 343.535 433.432 342.543 430.059C342.344 429.365 342.047 428.869 341.65 428.373C350.777 427.183 361.986 424.206 366.45 421.627C371.014 419.048 371.311 416.072 371.014 414.584C370.617 412.104 368.335 409.921 365.359 409.227L365.26 409.425ZM365.26 420.139C360.697 422.818 347.801 426.091 338.674 426.885C338.178 426.885 337.88 427.282 337.781 427.778C337.781 428.274 338.079 428.671 338.476 428.869C338.476 428.869 339.964 429.365 340.46 430.853C340.856 432.341 340.757 436.011 334.408 443.352C334.21 443.551 334.111 443.848 334.21 444.146C334.21 444.543 335.301 453.868 326.571 458.034C326.373 458.133 326.175 458.332 326.075 458.629C326.075 458.927 326.075 459.125 326.075 459.423C326.175 459.721 329.25 466.268 317.643 472.022C315.758 472.914 313.973 473.906 312.286 474.7C302.465 479.759 295.323 483.43 285.502 481.843C273.995 479.958 233.024 484.819 209.712 487.795C195.328 489.68 158.226 494.739 149.298 497.02L157.333 430.555C168.146 431.746 228.56 437.797 235.703 430.357C244.631 421.032 248.698 414.981 254.353 406.449L255.345 404.961C260.305 397.62 273.995 385.319 281.335 378.673C282.427 377.681 283.419 376.788 284.212 376.094C285.403 375.002 286.296 374.903 286.99 375.498C289.172 377.681 289.172 386.609 282.526 394.248C272.606 405.755 278.161 414.485 278.459 414.882C278.657 415.179 279.054 415.378 279.351 415.278C306.433 413.393 359.308 410.12 364.764 411.31C366.847 411.806 368.633 413.294 368.93 414.981C369.228 416.667 367.938 418.453 365.26 419.941V420.139Z" fill="#000100"/>
<path d="M335.498 441.963C335.498 441.963 326.967 447.42 305.738 441.467C305.043 441.269 304.249 441.666 304.051 442.36C303.853 443.055 304.249 443.749 304.944 443.947C312.086 445.931 317.939 446.626 322.602 446.626C332.522 446.626 336.49 443.154 336.788 442.955C337.383 442.559 337.978 441.963 337.482 441.368C337.085 440.773 335.994 441.467 335.399 441.864L335.498 441.963Z" fill="black"/>
<path d="M339.267 426.785C339.267 426.785 331.43 427.976 308.117 427.281C307.423 427.281 306.828 427.877 306.729 428.571C306.729 429.265 307.324 429.861 308.018 429.96C312.284 430.059 316.053 430.158 319.327 430.158C334.207 430.158 339.366 429.166 339.564 429.166C340.259 429.067 340.755 428.373 340.655 427.579C340.556 426.885 339.961 426.686 339.267 426.785Z" fill="black"/>
<path d="M328.85 456.447C328.85 456.447 318.533 461.506 298.594 460.514C297.8 460.514 297.205 461.01 297.205 461.804C297.205 462.498 297.701 463.193 298.495 463.193C300.181 463.193 301.768 463.292 303.356 463.292C320.914 463.292 329.446 458.332 329.842 458.034C330.537 457.737 331.231 457.34 330.834 456.645C330.537 456.05 329.545 456.05 328.95 456.348L328.85 456.447Z" fill="black"/>
<path d="M125.486 277.786L38.7841 330.958C38.7841 330.958 27.4751 376.094 28.5664 424.802C29.36 461.408 36.3041 503.172 116.757 503.668C146.517 503.866 206.931 491.168 206.931 491.168L209.709 426.092L121.518 410.815C121.518 410.815 137.093 349.211 125.586 277.885L125.486 277.786Z" fill="#FFEF72"/>
<path d="M209.814 425L122.616 409.922C124.6 401.49 137 343.357 126.386 277.587C126.386 277.091 125.79 276.694 125.294 276.793C124.798 276.793 124.402 277.388 124.501 277.884C135.81 348.218 120.632 409.823 120.434 410.418C120.434 410.715 120.434 411.013 120.533 411.211C120.731 411.41 120.93 411.608 121.227 411.608L208.525 426.786L205.747 490.176C198.704 491.565 144.837 502.477 117.061 502.477H116.565C37.6002 502.08 30.1601 462.102 29.3665 424.604C28.3745 376.59 39.4851 331.552 39.5843 331.056C39.6835 330.56 39.3859 329.965 38.8899 329.866C38.2946 329.767 37.7986 330.064 37.6994 330.56C37.6002 331.056 26.3904 376.392 27.3825 424.604C27.7793 443.452 29.7633 462.895 41.8659 478.172C55.6549 495.632 80.0585 504.163 116.565 504.362H117.16C146.92 504.362 206.342 491.962 206.937 491.862C207.334 491.862 207.731 491.366 207.731 490.969L210.509 425.893C210.509 425.397 210.211 425 209.715 424.901L209.814 425Z" fill="#000100"/>
<path d="M232.023 421.924L181.034 406.052C161.392 439.285 176.57 502.476 176.57 502.476L188.077 502.278L179.248 509.619C180.24 516.265 184.307 526.185 184.307 526.185L234.602 492.457C228.055 457.24 231.825 421.924 231.825 421.924H232.023Z" fill="white"/>
<path d="M233.02 422.024C233.02 422.024 232.822 421.131 232.326 420.933L181.336 405.061C181.336 405.061 180.443 405.061 180.146 405.458C160.504 438.591 174.987 500.096 175.583 502.675C175.682 503.072 176.079 503.469 176.575 503.469H185.304L178.658 508.826C178.36 509.024 178.261 509.421 178.261 509.719C179.253 516.365 183.221 526.087 183.419 526.484C183.519 526.781 183.816 526.98 184.015 527.079C184.015 527.079 184.213 527.079 184.312 527.079C184.511 527.079 184.709 527.079 184.908 526.88L235.203 493.152C235.203 493.152 235.699 492.557 235.6 492.16C229.151 457.439 232.822 422.223 232.822 421.925L233.02 422.024ZM233.715 492.061L184.908 524.797C183.816 522.119 181.237 515.274 180.443 510.215L188.876 503.27C188.876 503.27 189.272 502.576 189.173 502.179C189.074 501.782 188.677 501.485 188.28 501.485L177.567 501.683C175.979 494.441 164.174 438.095 181.634 407.442L231.036 422.818C230.54 428.274 227.961 460.316 233.814 492.16L233.715 492.061Z" fill="#000100"/>
<path d="M203.567 487.596C202.178 487.992 200.987 488.984 200.293 490.274C199.599 491.564 199.499 493.052 199.896 494.54C200.591 496.921 202.773 498.508 205.253 498.508C205.848 498.508 206.344 498.508 206.84 498.309C209.816 497.417 211.503 494.341 210.61 491.365C209.717 488.488 206.543 486.802 203.666 487.695L203.567 487.596Z" fill="black"/>
<path d="M160.115 100.81C155.552 100.115 151.683 102 149.302 105.968C144.838 113.706 150.393 121.245 153.965 124.222C154.262 124.519 154.758 124.618 155.155 124.519C155.453 124.519 155.651 124.321 155.849 124.122C156.345 123.527 156.246 122.733 155.651 122.237C155.651 122.237 147.12 114.996 151.584 107.258C153.965 103.191 157.635 103.092 159.619 103.389C163.686 103.984 167.357 107.258 168.15 110.928C168.25 111.623 168.944 112.119 169.738 111.92C170.432 111.722 170.928 111.028 170.73 110.333C169.738 105.572 165.274 101.504 160.016 100.711L160.115 100.81Z" fill="black"/>
<path d="M161.002 101.603C158.423 103.29 156.935 105.274 156.638 107.654C156.142 111.424 159.018 114.499 159.118 114.599C159.415 114.995 159.911 115.095 160.407 114.995C160.606 114.995 160.804 114.797 161.002 114.698C161.598 114.202 161.598 113.408 161.002 112.813C161.002 112.813 158.919 110.531 159.217 107.952C159.415 106.365 160.506 104.976 162.391 103.786C162.986 103.389 163.185 102.595 162.788 102C162.391 101.405 161.598 101.206 160.903 101.603H161.002Z" fill="black"/>
<path d="M360.593 198.423C362.577 185.924 346.605 178.781 344.026 180.368C341.447 181.955 348.589 194.058 347.2 199.018C345.911 203.978 342.736 228.878 342.736 228.878L365.255 267.368C382.119 236.318 356.426 224.811 360.593 198.522V198.423Z" fill="white"/>
<path d="M361.892 198.622C363.281 189.594 356.337 183.94 353.262 181.857C349.79 179.575 345.325 177.988 343.341 179.178C341.159 180.567 342.349 184.039 343.937 188.9C345.028 192.273 346.516 196.539 345.921 198.622C344.631 203.582 341.556 227.589 341.357 228.68C341.357 229.374 341.754 230.069 342.548 230.168C343.341 230.168 343.937 229.771 344.036 228.978C344.036 228.779 347.21 204.078 348.5 199.316C349.294 196.439 347.806 192.273 346.417 188.106C345.623 185.726 344.433 182.154 344.631 181.46C345.326 181.162 349.294 182.055 353.262 185.13C355.94 187.214 360.305 191.678 359.214 198.126C357.428 209.435 360.9 218.065 364.372 226.398C369.134 238.005 373.598 248.917 363.975 266.575C363.579 267.17 363.876 268.063 364.471 268.361C364.67 268.46 364.868 268.559 365.067 268.559C365.563 268.559 365.959 268.361 366.257 267.865C376.376 249.215 371.515 237.112 366.753 225.505C363.479 217.47 360.107 209.236 361.793 198.622H361.892Z" fill="black"/>
</g>
<defs>
<filter id="filter0_d_349_627" x="0" y="0" width="405" height="561.541" filterUnits="userSpaceOnUse" color-interpolation-filters="sRGB">
<feFlood flood-opacity="0" result="BackgroundImageFix"/>
<feColorMatrix in="SourceAlpha" type="matrix" values="0 0 0 0 0 0 0 0 0 0 0 0 0 0 0 0 0 0 127 0" result="hardAlpha"/>
<feOffset dx="5" dy="5"/>
<feComposite in2="hardAlpha" operator="out"/>
<feColorMatrix type="matrix" values="0 0 0 0 0.591346 0 0 0 0 0.591346 0 0 0 0 0.591346 0 0 0 1 0"/>
<feBlend mode="normal" in2="BackgroundImageFix" result="effect1_dropShadow_349_627"/>
<feBlend mode="normal" in="SourceGraphic" in2="effect1_dropShadow_349_627" result="shape"/>
</filter>
</defs>
</svg>
